<?xml version="1.0" encoding="utf-8"?>
<!-- Generator: Adobe Illustrator 16.0.0, SVG Export Plug-In . SVG Version: 6.00 Build 0)  -->
<!DOCTYPE svg PUBLIC "-//W3C//DTD SVG 1.1//EN" "http://www.w3.org/Graphics/SVG/1.1/DTD/svg11.dtd">
<svg version="1.1" id="Layer_1" xmlns="http://www.w3.org/2000/svg" xmlns:xlink="http://www.w3.org/1999/xlink" x="0px" y="0px"
	 width="300px" height="300px" viewBox="0 0 300 300" enable-background="new 0 0 300 300" xml:space="preserve">
<g>
	<path fill="#010101" d="M150,30.027C83.188,30.027,29.027,84.188,29.027,151c0,66.812,54.161,120.973,120.973,120.973
		c66.812,0,120.973-54.16,120.973-120.973C270.973,84.188,216.812,30.027,150,30.027z M150,223.584
		c-40.087,0-72.583-32.497-72.583-72.584S109.913,78.417,150,78.417s72.584,32.497,72.584,72.583S190.087,223.584,150,223.584z"/>
</g>
<rect x="127.809" y="40.325" transform="matrix(0.7071 -0.7071 0.7071 0.7071 -62.8388 150.2923)" fill="#010101" width="44.382" height="221.348"/>
<rect x="127.809" y="40.325" transform="matrix(-0.7071 -0.7071 0.7071 -0.7071 149.2926 363.8376)" fill="#010101" width="44.382" height="221.348"/>
</svg>
